<svg xmlns="http://www.w3.org/2000/svg" xmlns:xlink="http://www.w3.org/1999/xlink" width="500" zoomAndPan="magnify" viewBox="0 0 375 374.999991" height="500" preserveAspectRatio="xMidYMid meet" version="1.0"><defs><g/><clipPath id="81badfffa4"><path d="M 53.457031 141 L 321 141 L 321 220 L 53.457031 220 Z M 53.457031 141 " clip-rule="nonzero"/></clipPath></defs><g fill="#ffffff" fill-opacity="1"><g transform="translate(128.048661, 205.20296)"><g><path d="M 31.171875 -12.421875 L 30.621094 -12.421875 C 30.667969 -6.464844 27.640625 -2.429688 22.140625 -2.429688 C 16.179688 -2.429688 12.285156 -7.65625 12.285156 -15.539062 C 12.285156 -24.292969 15.449219 -29.199219 21.359375 -29.199219 C 25.074219 -29.199219 30.070312 -26.359375 30.667969 -18.566406 L 31.171875 -18.566406 C 30.574219 -27.320312 24.476562 -30.804688 17.738281 -30.804688 C 9.304688 -30.804688 1.605469 -25.394531 1.605469 -15.585938 C 1.605469 -5.453125 9.671875 0 18.382812 0 C 26.449219 0 31.171875 -4.949219 31.171875 -12.421875 Z M 31.171875 -12.421875 "/></g></g></g><g fill="#ffffff" fill-opacity="1"><g transform="translate(157.932616, 205.20296)"><g><path d="M 22.917969 -30.207031 L 22.597656 -30.207031 L 22.597656 -15.402344 C 22.597656 -11.6875 21.773438 -2.796875 16.457031 -2.796875 C 14.074219 -2.796875 12.972656 -4.445312 12.972656 -7.929688 L 12.972656 -20.445312 C 12.972656 -25.851562 8.570312 -30.207031 3.207031 -30.207031 L 2.886719 -30.207031 L 2.886719 -10.496094 C 2.886719 -4.171875 6.324219 0 12.605469 0 C 18.929688 0 21.957031 -4.402344 22.917969 -10.679688 L 22.917969 -9.765625 C 22.917969 -4.355469 27.320312 0 32.683594 0 L 32.683594 -20.445312 C 32.683594 -25.851562 28.328125 -30.207031 22.917969 -30.207031 Z M 22.917969 -30.207031 "/></g></g></g><g fill="#ffffff" fill-opacity="1"><g transform="translate(190.841679, 205.20296)"><g><path d="M 24.113281 -29.613281 L 24.113281 -30.207031 C 17.464844 -30.207031 14.394531 -26.21875 13.203125 -20.71875 C 13.203125 -25.625 9.214844 -29.613281 4.308594 -29.613281 L 3.117188 -29.613281 L 3.117188 -8.894531 C 3.117188 -3.988281 7.105469 0 12.011719 0 L 13.203125 0 L 13.203125 -14.257812 C 13.203125 -22.554688 15.492188 -29.613281 24.113281 -29.613281 Z M 24.113281 -29.613281 "/></g></g></g><g fill="#ffffff" fill-opacity="1"><g transform="translate(212.475326, 205.20296)"><g><path d="M 3.117188 -41.4375 L 3.117188 -10.085938 C 3.117188 -4.492188 7.65625 0 13.203125 0 L 13.203125 -31.398438 C 13.203125 -36.945312 8.710938 -41.4375 3.117188 -41.4375 Z M 3.117188 -41.4375 "/></g></g></g><g fill="#ffffff" fill-opacity="1"><g transform="translate(225.858675, 205.20296)"><g><path d="M 16.410156 -7.105469 C 16.410156 -10.3125 14.164062 -12.925781 10.496094 -12.925781 C 6.875 -12.925781 4.628906 -10.3125 4.628906 -7.105469 C 4.628906 -3.894531 6.875 -1.328125 10.496094 -1.328125 C 14.164062 -1.328125 16.410156 -3.941406 16.410156 -7.105469 Z M 16.410156 -7.105469 "/></g></g></g><g clip-path="url(#81badfffa4)"><path fill="#ffffff" d="M 54.355469 190.25 C 54.941406 185.554688 57.902344 181.601562 61.847656 179.101562 C 64.414062 177.472656 67.328125 176.605469 70.3125 176.34375 C 69.882812 176.457031 69.445312 176.589844 69.019531 176.738281 C 66.09375 177.765625 63.1875 179.53125 61.183594 181.914062 C 59.8125 183.542969 58.894531 185.441406 58.523438 187.53125 C 58.550781 187.402344 59.042969 187.359375 59.070312 187.21875 C 59.90625 182.519531 63.59375 178.917969 67.949219 177.246094 C 69.167969 176.777344 70.40625 176.457031 71.667969 176.261719 C 71.84375 176.261719 72.011719 176.261719 72.1875 176.257812 C 69.9375 176.988281 67.757812 178.179688 66.074219 179.777344 C 64.703125 181.074219 63.703125 182.664062 63.234375 184.5 C 63.269531 184.363281 63.738281 184.332031 63.777344 184.1875 C 64.855469 179.957031 68.660156 177.308594 72.710938 176.257812 C 73.007812 176.257812 73.292969 176.269531 73.589844 176.28125 C 72.742188 176.644531 71.910156 177.097656 71.101562 177.640625 C 69.695312 178.597656 68.546875 179.863281 67.933594 181.46875 C 67.992188 181.316406 68.417969 181.3125 68.480469 181.15625 C 69.394531 178.738281 71.417969 177.183594 73.75 176.289062 C 74.101562 176.304688 74.453125 176.339844 74.796875 176.371094 C 73.9375 176.914062 73.183594 177.554688 72.644531 178.4375 C 72.738281 178.28125 73.085938 178.28125 73.1875 178.125 C 73.621094 177.414062 74.183594 176.839844 74.835938 176.371094 C 75.761719 176.464844 76.6875 176.605469 77.597656 176.796875 C 89.035156 179.207031 97.539062 187.789062 106.347656 194.820312 C 111.96875 199.296875 118.105469 202.929688 124.707031 205.4375 C 125.050781 205.59375 125.402344 205.738281 125.75 205.886719 C 126.058594 206.039062 126.367188 206.183594 126.679688 206.328125 C 126.839844 206.414062 127.003906 206.496094 127.167969 206.582031 C 127.367188 206.703125 127.574219 206.816406 127.773438 206.929688 C 127.957031 207.039062 128.136719 207.160156 128.324219 207.273438 C 128.417969 207.335938 128.507812 207.402344 128.601562 207.46875 C 128.6875 207.53125 128.777344 207.578125 128.863281 207.640625 C 132.40625 210.773438 136.320312 213.5 140.785156 215.636719 C 149.894531 220.003906 160.234375 220.535156 169.761719 217.171875 C 178.132812 214.214844 185.453125 208.5625 190.074219 200.953125 C 193.128906 195.914062 195.121094 190.339844 197.085938 184.808594 C 198.984375 179.464844 200.957031 174.152344 203.492188 169.070312 C 205.421875 165.210938 207.695312 161.410156 210.34375 157.917969 C 220.894531 160.34375 229.300781 168.65625 237.078125 175.660156 C 245.113281 182.898438 253.839844 190.046875 264.808594 191.972656 C 269.800781 192.851562 274.992188 192.433594 279.585938 190.207031 C 280.039062 189.988281 280.476562 189.757812 280.914062 189.511719 C 282.761719 192.714844 284.890625 195.726562 287.507812 198.394531 C 290.832031 201.792969 294.820312 204.433594 299.496094 205.480469 C 303.328125 206.339844 307.449219 206.140625 310.910156 204.164062 C 312.320312 203.363281 313.542969 202.375 314.542969 201.082031 C 314.425781 201.234375 314.125 201.238281 314 201.394531 C 311.074219 205.148438 306.285156 206.09375 301.765625 205.480469 C 297.195312 204.859375 293.128906 202.707031 289.703125 199.667969 C 286.328125 196.671875 283.679688 193.082031 281.445312 189.207031 C 281.703125 189.054688 281.960938 188.90625 282.210938 188.742188 C 284.074219 191.296875 286.171875 193.671875 288.664062 195.714844 C 294.894531 200.839844 304.621094 203.957031 312.171875 199.769531 C 313.304688 199.140625 314.335938 198.410156 315.246094 197.476562 C 315.105469 197.617188 314.84375 197.644531 314.699219 197.789062 C 311.632812 200.964844 306.910156 201.628906 302.691406 201.214844 C 298.308594 200.789062 294.238281 199.136719 290.6875 196.554688 C 287.542969 194.265625 284.984375 191.460938 282.75 188.390625 C 283.011719 188.214844 283.273438 188.035156 283.53125 187.851562 C 285.050781 189.417969 286.679688 190.878906 288.484375 192.136719 C 292.304688 194.8125 296.636719 196.554688 301.269531 197.105469 C 305.332031 197.59375 309.808594 197.347656 313.496094 195.425781 C 314.355469 194.980469 315.183594 194.46875 315.933594 193.867188 C 315.769531 193.992188 315.550781 194.046875 315.390625 194.179688 C 311.988281 196.890625 306.980469 197.253906 302.808594 196.898438 C 298.328125 196.515625 294.117188 195.0625 290.304688 192.675781 C 287.976562 191.214844 285.910156 189.449219 284.007812 187.507812 C 284.277344 187.308594 284.546875 187.101562 284.816406 186.894531 C 285.234375 187.1875 285.667969 187.484375 286.097656 187.757812 C 293.597656 192.519531 303.515625 194.40625 312.1875 192.125 C 313.605469 191.753906 314.957031 191.222656 316.226562 190.496094 C 316.316406 190.445312 316.828125 190.144531 316.496094 190.332031 C 312.847656 192.414062 308.246094 192.789062 304.132812 192.675781 C 299.605469 192.550781 295.203125 191.609375 291.050781 189.792969 C 289.003906 188.898438 287.105469 187.777344 285.304688 186.511719 C 285.578125 186.285156 285.855469 186.0625 286.125 185.828125 C 294.023438 188.828125 303.011719 189.394531 311.320312 188.214844 C 313.179688 187.953125 315.027344 187.578125 316.796875 186.960938 C 316.992188 186.894531 317.148438 186.71875 317.34375 186.648438 C 313.417969 188.007812 309.121094 188.347656 304.988281 188.417969 C 300.375 188.492188 295.804688 188.035156 291.3125 186.945312 C 289.691406 186.550781 288.101562 186.046875 286.550781 185.453125 C 286.832031 185.207031 287.105469 184.957031 287.382812 184.707031 C 291.007812 184.976562 294.683594 184.871094 298.296875 184.78125 C 302.757812 184.683594 307.222656 184.386719 311.667969 183.980469 C 313.617188 183.804688 315.558594 183.605469 317.5 183.355469 C 317.691406 183.328125 317.847656 183.066406 318.042969 183.042969 C 309.097656 184.199219 300.015625 184.632812 291 184.519531 C 289.910156 184.507812 288.828125 184.449219 287.75 184.355469 C 287.933594 184.179688 288.121094 184.011719 288.300781 183.835938 C 288.445312 183.699219 288.585938 183.554688 288.726562 183.417969 C 291.914062 182.714844 295.078125 181.863281 298.289062 181.316406 C 302.835938 180.546875 307.429688 179.953125 312.03125 179.714844 C 314.09375 179.609375 316.152344 179.578125 318.207031 179.746094 C 318.382812 179.757812 318.582031 179.421875 318.75 179.433594 C 314.222656 179.070312 309.621094 179.527344 305.125 180.085938 C 300.179688 180.699219 295.332031 181.644531 290.480469 182.789062 C 289.992188 182.902344 289.511719 183.015625 289.023438 183.121094 C 289.390625 182.753906 289.753906 182.378906 290.117188 181.996094 C 292.847656 180.585938 295.566406 179.144531 298.484375 178.125 C 302.960938 176.558594 307.742188 175.515625 312.503906 175.417969 C 314.664062 175.375 316.828125 175.542969 318.914062 176.136719 C 319.058594 176.175781 319.320312 175.785156 319.457031 175.824219 C 314.945312 174.539062 309.992188 175.078125 305.464844 176.023438 C 300.664062 177.027344 296.214844 178.78125 291.871094 181.03125 C 291.328125 181.3125 290.78125 181.59375 290.238281 181.875 C 290.625 181.46875 291.011719 181.054688 291.40625 180.636719 C 293.128906 179.246094 294.851562 177.847656 296.660156 176.570312 C 301.289062 173.320312 307.199219 171.125 312.902344 171.101562 C 315.230469 171.089844 317.519531 171.507812 319.621094 172.523438 C 319.726562 172.574219 320.058594 172.160156 320.167969 172.210938 C 312.316406 168.414062 302.371094 172.398438 295.773438 177.128906 C 294.414062 178.097656 293.097656 179.15625 291.789062 180.222656 C 297.90625 173.65625 304.351562 166.316406 313.992188 166.785156 C 316.285156 166.898438 318.433594 167.625 320.328125 168.914062 C 320.410156 168.972656 320.796875 168.550781 320.875 168.601562 C 313.402344 163.527344 303.617188 168.355469 297.738281 173.777344 C 295.246094 176.074219 293.003906 178.628906 290.699219 181.117188 C 290.113281 181.601562 289.515625 182.078125 288.914062 182.539062 C 288.195312 182.898438 287.476562 183.246094 286.742188 183.578125 C 285.980469 183.71875 285.210938 183.84375 284.4375 183.941406 C 283.71875 183.832031 283 183.699219 282.277344 183.554688 C 281.671875 183.253906 281.078125 182.933594 280.480469 182.613281 C 280.25 182.402344 280.011719 182.195312 279.78125 181.980469 C 279.210938 181.457031 278.648438 180.929688 278.082031 180.398438 C 277.671875 179.847656 277.269531 179.289062 276.863281 178.730469 C 276.238281 177.578125 275.625 176.417969 275.003906 175.265625 C 274.773438 174.695312 274.546875 174.132812 274.320312 173.5625 C 270.671875 164.484375 266.683594 154.90625 259.257812 148.210938 C 255.574219 144.890625 251.109375 142.546875 246.226562 141.625 C 241.230469 140.6875 236.03125 141.175781 231.191406 142.664062 C 223.078125 145.160156 216.214844 150.359375 210.886719 156.859375 C 210.832031 156.917969 210.769531 156.980469 210.710938 157.035156 C 210.648438 157.085938 210.582031 157.144531 210.519531 157.191406 L 210.359375 157.242188 C 210.292969 157.257812 210.21875 157.273438 210.148438 157.289062 C 209.972656 157.300781 209.796875 157.3125 209.621094 157.332031 C 209.492188 157.324219 209.359375 157.320312 209.226562 157.3125 C 205.597656 156.753906 201.910156 157.066406 198.402344 158.609375 C 194.941406 160.136719 191.847656 162.46875 189.234375 165.1875 C 181.226562 173.5 177.363281 184.707031 170.796875 194.042969 C 167.484375 198.753906 163.445312 203.164062 158.316406 205.914062 C 152.976562 208.777344 146.640625 209.265625 140.710938 208.730469 C 136.457031 208.351562 132.308594 207.480469 128.292969 206.203125 C 126.015625 204.078125 123.878906 201.796875 121.890625 199.4375 C 114.242188 190.351562 108.550781 179.851562 101.878906 170.074219 C 100.222656 167.65625 98.507812 165.28125 96.707031 162.976562 L 96.160156 163.289062 C 104.371094 173.761719 110.855469 186.386719 119.183594 197.128906 C 119.121094 197.054688 119.050781 196.980469 118.988281 196.910156 C 111.683594 188.347656 105.820312 178.5 97.519531 170.8125 C 95.730469 169.152344 93.851562 167.59375 91.996094 166 L 91.453125 166.316406 C 95.617188 169.886719 99.648438 173.476562 103.1875 177.683594 C 106.910156 182.121094 110.242188 186.875 113.785156 191.453125 C 115.589844 193.777344 117.457031 196.085938 119.410156 198.3125 C 118.246094 197.09375 117.105469 195.851562 115.996094 194.59375 C 112.289062 190.402344 108.851562 185.984375 105.121094 181.8125 C 101.558594 177.835938 97.664062 174.070312 92.9375 171.519531 C 91.121094 170.542969 89.222656 169.742188 87.300781 169.019531 C 87.175781 168.972656 86.882812 169.378906 86.757812 169.335938 C 91.382812 171.070312 95.554688 173.417969 99.246094 176.726562 C 103.460938 180.503906 107.003906 184.933594 110.628906 189.253906 C 113.324219 192.46875 116.078125 195.675781 118.988281 198.722656 C 116.546875 196.371094 114.210938 193.917969 111.9375 191.4375 C 108.289062 187.453125 104.769531 183.304688 100.746094 179.695312 C 97.011719 176.355469 92.785156 173.382812 87.816406 172.308594 C 86.125 171.945312 84.3125 171.734375 82.597656 172.046875 C 82.40625 172.085938 82.25 172.324219 82.054688 172.359375 C 86.300781 171.578125 91.007812 173.449219 94.527344 175.660156 C 99.003906 178.46875 102.730469 182.28125 106.285156 186.148438 C 110.171875 190.371094 114 194.679688 118.105469 198.675781 C 113.5625 194.574219 109.335938 190.101562 104.996094 185.746094 C 101.339844 182.078125 97.457031 178.511719 92.859375 176.042969 C 88.898438 173.914062 83.558594 172.371094 79.199219 174.269531 C 78.824219 174.433594 78.449219 174.632812 78.089844 174.859375 C 77.707031 174.972656 77.328125 175.105469 76.945312 175.253906 C 76.65625 175.304688 76.367188 175.359375 76.074219 175.429688 C 75.40625 175.484375 74.734375 175.578125 74.066406 175.71875 C 73.40625 175.753906 72.757812 175.824219 72.105469 175.929688 C 69.261719 176.039062 66.464844 176.671875 63.839844 177.953125 C 60.835938 179.425781 58.074219 181.507812 56.183594 184.300781 C 54.910156 186.171875 54.117188 188.285156 53.835938 190.527344 C 53.847656 190.410156 54.359375 190.34375 54.378906 190.214844 Z M 283.71875 186.125 C 283.488281 186.253906 283.253906 186.378906 283.023438 186.5 C 282.722656 186.171875 282.429688 185.847656 282.136719 185.515625 C 282.328125 185.460938 282.515625 185.402344 282.710938 185.339844 C 283.042969 185.601562 283.382812 185.867188 283.71875 186.125 Z M 283.386719 185.113281 C 283.554688 185.058594 283.71875 184.996094 283.886719 184.933594 C 284.246094 185.089844 284.601562 185.253906 284.957031 185.402344 C 284.738281 185.539062 284.515625 185.671875 284.289062 185.804688 C 283.988281 185.578125 283.6875 185.351562 283.386719 185.113281 Z M 282.484375 186.773438 C 282.398438 186.820312 282.304688 186.867188 282.214844 186.914062 C 282.078125 186.976562 281.941406 187.039062 281.804688 187.09375 C 281.519531 186.679688 281.253906 186.265625 280.976562 185.847656 C 281.15625 185.804688 281.347656 185.746094 281.527344 185.699219 C 281.839844 186.0625 282.160156 186.417969 282.484375 186.773438 Z M 281.203125 187.359375 C 280.984375 187.445312 280.765625 187.53125 280.539062 187.621094 C 280.269531 187.125 280.011719 186.625 279.753906 186.125 C 279.9375 186.085938 280.125 186.046875 280.304688 186.011719 C 280.601562 186.46875 280.894531 186.917969 281.195312 187.363281 Z M 279.945312 187.828125 C 276.003906 189.15625 271.828125 189.269531 267.691406 188.441406 C 256.933594 186.28125 248 179.324219 239.53125 172.761719 C 231.457031 166.503906 222.535156 159.261719 212.121094 157.636719 C 218.652344 157.976562 225.25 160.738281 230.792969 163.796875 C 240.195312 168.988281 248.449219 176.007812 257.902344 181.105469 C 262.15625 183.398438 266.695312 185.410156 271.484375 186.242188 C 274.070312 186.695312 276.617188 186.660156 279.117188 186.242188 C 279.386719 186.773438 279.660156 187.308594 279.945312 187.828125 Z M 271.207031 192.117188 C 260.113281 192.558594 250.089844 186.171875 241.988281 179.246094 C 233.535156 172.023438 225.652344 163.296875 215.152344 159.023438 C 214.167969 158.621094 213.171875 158.277344 212.160156 157.996094 C 220.285156 159.410156 227.878906 164.667969 234.234375 169.429688 C 242.820312 175.863281 251.003906 183.117188 261.164062 186.988281 C 265.742188 188.734375 270.746094 189.792969 275.648438 189.082031 C 277.152344 188.859375 278.589844 188.453125 279.992188 187.914062 C 280.269531 188.421875 280.542969 188.929688 280.832031 189.429688 C 277.910156 191.007812 274.714844 191.972656 271.203125 192.113281 Z M 281.382812 189.136719 C 281.109375 188.660156 280.84375 188.179688 280.582031 187.695312 C 280.800781 187.601562 281.019531 187.507812 281.238281 187.40625 C 281.535156 187.839844 281.835938 188.257812 282.140625 188.679688 C 281.890625 188.835938 281.640625 188.984375 281.382812 189.128906 Z M 282.6875 188.339844 C 282.398438 187.945312 282.117188 187.546875 281.839844 187.136719 C 282.066406 187.03125 282.292969 186.914062 282.515625 186.800781 C 282.828125 187.144531 283.144531 187.484375 283.46875 187.816406 C 283.210938 187.996094 282.957031 188.164062 282.691406 188.335938 Z M 283.9375 187.46875 C 283.636719 187.164062 283.335938 186.84375 283.050781 186.53125 C 283.28125 186.40625 283.511719 186.273438 283.738281 186.140625 C 284.0625 186.386719 284.394531 186.636719 284.726562 186.875 C 284.464844 187.082031 284.203125 187.28125 283.9375 187.476562 Z M 285.214844 186.488281 C 284.910156 186.265625 284.609375 186.042969 284.308594 185.816406 C 284.53125 185.683594 284.753906 185.546875 284.972656 185.410156 C 285.316406 185.554688 285.660156 185.683594 286.011719 185.816406 C 285.746094 186.042969 285.484375 186.265625 285.214844 186.488281 Z M 286.867188 185.046875 C 286.722656 185.183594 286.574219 185.308594 286.429688 185.441406 C 286.125 185.320312 285.816406 185.195312 285.511719 185.070312 C 285.730469 184.933594 285.9375 184.78125 286.15625 184.636719 C 286.5 184.675781 286.851562 184.703125 287.195312 184.726562 C 287.082031 184.832031 286.980469 184.9375 286.867188 185.039062 Z M 287.558594 184.382812 C 287.261719 184.355469 286.976562 184.320312 286.679688 184.289062 C 286.945312 184.105469 287.207031 183.910156 287.46875 183.722656 C 287.796875 183.65625 288.113281 183.585938 288.441406 183.515625 C 288.152344 183.8125 287.851562 184.09375 287.558594 184.382812 Z M 290.367188 181.511719 C 290.167969 181.730469 289.960938 181.945312 289.761719 182.164062 C 289.554688 182.269531 289.355469 182.371094 289.148438 182.476562 C 289.554688 182.15625 289.96875 181.839844 290.367188 181.519531 Z M 289.648438 182.277344 C 289.339844 182.597656 289.027344 182.914062 288.722656 183.230469 C 288.453125 183.285156 288.191406 183.34375 287.921875 183.398438 C 288.253906 183.152344 288.578125 182.910156 288.898438 182.660156 C 289.148438 182.535156 289.398438 182.402344 289.648438 182.277344 Z M 288.664062 182.777344 C 288.390625 182.992188 288.109375 183.203125 287.832031 183.417969 C 287.574219 183.46875 287.320312 183.515625 287.054688 183.566406 C 287.59375 183.308594 288.132812 183.046875 288.664062 182.777344 Z M 287.394531 183.742188 C 287.144531 183.925781 286.894531 184.105469 286.644531 184.289062 C 286.335938 184.257812 286.023438 184.226562 285.714844 184.1875 C 285.871094 184.117188 286.035156 184.042969 286.191406 183.972656 C 286.59375 183.898438 287 183.832031 287.402344 183.75 Z M 285.808594 184.039062 C 285.714844 184.074219 285.621094 184.113281 285.527344 184.15625 C 285.460938 184.148438 285.390625 184.136719 285.320312 184.125 C 285.484375 184.101562 285.640625 184.070312 285.804688 184.039062 Z M 286.128906 184.636719 C 285.917969 184.78125 285.703125 184.925781 285.492188 185.066406 C 285.183594 184.9375 284.878906 184.808594 284.570312 184.675781 C 284.707031 184.621094 284.847656 184.5625 284.984375 184.507812 C 285.367188 184.558594 285.742188 184.605469 286.125 184.644531 Z M 283.84375 184.335938 C 284.074219 184.375 284.300781 184.414062 284.53125 184.449219 C 284.601562 184.464844 284.675781 184.46875 284.746094 184.476562 C 284.632812 184.519531 284.527344 184.5625 284.414062 184.605469 C 284.21875 184.519531 284.019531 184.4375 283.824219 184.34375 L 283.84375 184.34375 Z M 282.828125 184.445312 C 283.125 184.582031 283.417969 184.71875 283.710938 184.859375 C 283.5625 184.914062 283.414062 184.964844 283.269531 185.019531 C 283.035156 184.839844 282.8125 184.65625 282.578125 184.46875 C 282.660156 184.464844 282.75 184.457031 282.828125 184.445312 Z M 282.328125 184.207031 L 282.265625 184.207031 C 282.265625 184.207031 282.171875 184.132812 282.171875 184.132812 Z M 282.585938 185.238281 C 282.402344 185.296875 282.222656 185.351562 282.042969 185.402344 C 281.796875 185.121094 281.550781 184.84375 281.308594 184.558594 C 281.453125 184.550781 281.589844 184.558594 281.734375 184.542969 C 282.015625 184.78125 282.304688 185.015625 282.585938 185.238281 Z M 280.800781 183.742188 C 281 183.917969 281.203125 184.085938 281.402344 184.261719 C 281.296875 184.261719 281.183594 184.269531 281.078125 184.273438 C 280.921875 184.085938 280.765625 183.894531 280.605469 183.699219 C 280.667969 183.710938 280.738281 183.730469 280.800781 183.742188 Z M 280.589844 184.574219 C 280.863281 184.914062 281.144531 185.238281 281.425781 185.570312 C 281.253906 185.617188 281.070312 185.660156 280.890625 185.703125 C 280.652344 185.332031 280.417969 184.964844 280.195312 184.589844 C 280.324219 184.589844 280.457031 184.574219 280.589844 184.574219 Z M 279.707031 183.480469 C 279.917969 183.75 280.136719 184.019531 280.351562 184.289062 C 280.230469 184.289062 280.117188 184.289062 280 184.289062 C 279.824219 184 279.648438 183.710938 279.472656 183.417969 C 279.550781 183.4375 279.628906 183.460938 279.707031 183.480469 Z M 280.210938 185.855469 C 280.039062 185.890625 279.855469 185.929688 279.679688 185.960938 C 279.449219 185.496094 279.21875 185.027344 278.996094 184.5625 C 279.136719 184.5625 279.28125 184.570312 279.417969 184.574219 C 279.679688 185.007812 279.945312 185.433594 280.210938 185.855469 Z M 279.210938 182.839844 L 279.125 182.816406 C 279.046875 182.691406 278.972656 182.558594 278.898438 182.433594 C 279.003906 182.570312 279.105469 182.703125 279.210938 182.839844 Z M 278.570312 183.160156 C 278.792969 183.53125 279.003906 183.90625 279.230469 184.269531 C 279.105469 184.269531 278.972656 184.261719 278.847656 184.257812 C 278.660156 183.867188 278.484375 183.472656 278.304688 183.085938 C 278.390625 183.109375 278.484375 183.136719 278.578125 183.160156 Z M 279.035156 186.066406 C 278.605469 186.128906 278.164062 186.1875 277.722656 186.222656 C 273.042969 186.617188 268.367188 185.289062 264.089844 183.503906 C 253.984375 179.28125 245.492188 172.203125 236.296875 166.421875 C 229.3125 162.03125 220.96875 157.59375 212.472656 157.304688 C 218.246094 156.855469 224.261719 158.175781 229.691406 160.277344 C 239.652344 164.128906 248.199219 170.550781 257.222656 176.113281 C 261.390625 178.679688 265.699219 181.15625 270.308594 182.847656 C 272.910156 183.804688 275.578125 184.371094 278.289062 184.539062 C 278.535156 185.050781 278.785156 185.566406 279.035156 186.074219 Z M 277.734375 181.699219 C 277.890625 181.980469 278.050781 182.269531 278.214844 182.546875 C 278.152344 182.527344 278.089844 182.507812 278.027344 182.488281 C 277.902344 182.207031 277.777344 181.933594 277.652344 181.648438 Z M 278.132812 184.210938 C 277.445312 184.164062 276.757812 184.082031 276.066406 183.960938 C 271.460938 183.183594 267.113281 181.117188 263.050781 178.886719 C 253.589844 173.707031 245.09375 166.929688 235.367188 162.203125 C 228.019531 158.632812 219.382812 155.894531 211.167969 157.148438 C 218.300781 155.1875 226.226562 156.128906 233.175781 158.390625 C 243.027344 161.597656 251.472656 167.578125 259.988281 173.292969 C 263.882812 175.90625 267.808594 178.53125 272.015625 180.617188 C 273.777344 181.488281 275.617188 182.21875 277.496094 182.820312 C 277.703125 183.285156 277.914062 183.742188 278.128906 184.199219 Z M 226.816406 144.4375 C 236.320312 140.335938 247.496094 140.292969 256.117188 146.480469 C 264.191406 152.269531 268.753906 161.679688 272.441406 170.648438 C 268.355469 163.40625 263.613281 156.296875 256.921875 151.25 C 248.960938 145.242188 238.863281 143.535156 229.257812 146.03125 C 222.859375 147.691406 217.109375 151.097656 212.285156 155.546875 C 216.289062 150.859375 221.082031 146.914062 226.808594 144.4375 Z M 225.640625 147.28125 C 235.050781 143.929688 245.644531 144.5625 254.152344 150 C 262 155.011719 267.390625 162.96875 271.890625 170.929688 C 272.617188 172.214844 273.324219 173.523438 274.027344 174.839844 C 273.324219 173.875 272.628906 172.917969 271.917969 171.984375 C 266.460938 164.792969 260.375 157.730469 252.480469 153.144531 C 244.003906 148.222656 233.730469 147.03125 224.324219 149.777344 C 219.765625 151.105469 215.53125 153.351562 211.769531 156.234375 C 215.714844 152.339844 220.324219 149.175781 225.640625 147.28125 Z M 211.3125 156.710938 C 214.175781 154.378906 217.34375 152.445312 220.867188 151.078125 C 230.089844 147.496094 240.691406 147.847656 249.589844 152.199219 C 258.054688 156.335938 264.597656 163.519531 270.277344 170.867188 C 271.960938 173.042969 273.582031 175.261719 275.210938 177.476562 C 275.261719 177.601562 275.316406 177.734375 275.367188 177.859375 C 273.730469 176.28125 272.117188 174.691406 270.507812 173.09375 C 263.875 166.515625 256.925781 159.867188 248.460938 155.695312 C 239.851562 151.449219 229.722656 150.109375 220.417969 152.714844 C 217.171875 153.621094 214.105469 155.007812 211.269531 156.761719 Z M 211.230469 156.816406 C 212.289062 156.160156 213.390625 155.546875 214.550781 155.007812 C 223.234375 150.949219 233.320312 150.765625 242.363281 153.734375 C 251.816406 156.835938 259.613281 163.371094 266.675781 170.171875 C 269.667969 173.054688 272.574219 176.03125 275.585938 178.886719 C 275.703125 179 275.824219 179.113281 275.9375 179.226562 C 276.074219 179.546875 276.207031 179.871094 276.34375 180.191406 C 273.613281 178.4375 270.988281 176.511719 268.453125 174.558594 C 260.582031 168.496094 252.8125 161.941406 243.628906 157.945312 C 234.894531 154.140625 224.863281 152.578125 215.582031 155.269531 C 214.042969 155.714844 212.566406 156.277344 211.136719 156.9375 Z M 211.050781 157.050781 C 219.453125 153.328125 229.078125 153.570312 237.75 156.265625 C 247.339844 159.242188 255.472656 165.210938 263.3125 171.292969 C 267.671875 174.679688 272.042969 178.140625 276.726562 181.074219 C 276.894531 181.460938 277.0625 181.855469 277.238281 182.246094 C 273.082031 180.878906 269.273438 178.628906 265.59375 176.300781 C 256.714844 170.667969 248.359375 164.078125 238.625 159.929688 C 230.058594 156.277344 220.121094 154.285156 211.023438 157.082031 L 211.042969 157.054688 Z M 209.117188 159.171875 C 205.902344 163.550781 203.304688 168.355469 201.105469 173.320312 C 198.796875 178.523438 197.03125 183.9375 195.050781 189.273438 C 193.097656 194.542969 190.863281 199.792969 187.496094 204.328125 C 184.3125 208.613281 180.09375 212.234375 175.355469 214.695312 C 166.707031 219.1875 156.425781 220.421875 147.058594 217.589844 C 144.503906 216.820312 142.070312 215.792969 139.738281 214.558594 C 148.636719 218.617188 158.597656 219.355469 167.960938 215.988281 C 176.207031 213.015625 183.429688 207.359375 188.121094 199.9375 C 194 190.632812 196.449219 179.644531 201.675781 169.992188 C 203.867188 165.945312 206.503906 162.035156 209.585938 158.558594 C 209.429688 158.765625 209.273438 158.964844 209.121094 159.167969 Z M 207.996094 160.0625 C 204.5625 164.171875 201.785156 168.78125 199.449219 173.59375 C 197.074219 178.492188 195.265625 183.628906 193.238281 188.679688 C 191.289062 193.523438 189.109375 198.328125 186.015625 202.554688 C 182.742188 207.035156 178.410156 210.867188 173.5 213.46875 C 163.988281 218.503906 152.820312 219.238281 142.769531 215.335938 C 141.457031 214.820312 140.171875 214.238281 138.917969 213.605469 C 146.691406 216.96875 155.285156 218.027344 163.625 215.648438 C 171.523438 213.394531 178.734375 208.488281 183.851562 202.085938 C 190.542969 193.714844 193.242188 183.128906 198.070312 173.730469 C 201.070312 167.886719 204.96875 162.332031 209.871094 157.945312 C 209.226562 158.632812 208.59375 159.34375 207.988281 160.070312 Z M 209.808594 157.839844 C 207.679688 159.679688 205.722656 161.714844 203.976562 163.910156 C 197.449219 172.085938 194.277344 181.914062 189.929688 191.273438 C 187.769531 195.921875 185.214844 200.394531 181.773438 204.214844 C 178.152344 208.230469 173.71875 211.53125 168.753906 213.6875 C 159.1875 217.839844 148.597656 217.414062 139.132812 213.175781 C 138.757812 213.003906 138.386719 212.824219 138.019531 212.648438 C 144.285156 215.253906 151.074219 216.476562 157.890625 215.402344 C 165.644531 214.1875 172.917969 210.140625 178.503906 204.699219 C 185.90625 197.488281 189.503906 187.894531 193.773438 178.71875 C 197.511719 170.695312 202.464844 162.914062 209.730469 157.820312 L 209.816406 157.839844 Z M 209.242188 157.761719 L 209.339844 157.746094 L 209.445312 157.761719 L 209.484375 157.761719 C 208.652344 158.21875 207.84375 158.695312 207.054688 159.210938 C 207.84375 158.695312 208.675781 158.226562 209.535156 157.789062 L 209.671875 157.820312 C 206.117188 160.269531 202.964844 163.320312 200.355469 166.773438 C 194.09375 175.046875 191.125 185.058594 186.15625 194.054688 C 181.289062 202.867188 173.871094 210.324219 164.203125 213.65625 C 155.417969 216.683594 146.070312 215.640625 137.703125 211.996094 C 142.90625 213.957031 148.429688 214.992188 154.023438 214.546875 C 161.847656 213.925781 169.199219 210.253906 175.011719 205.074219 C 182.460938 198.433594 186.554688 189.539062 190.777344 180.699219 C 194.65625 172.558594 199.386719 164.246094 207.019531 159.246094 C 202.648438 162.109375 198.960938 165.976562 196.011719 170.40625 C 190.289062 179 187.332031 189.125 181.382812 197.585938 C 175.660156 205.738281 167.246094 212.257812 157.253906 213.914062 C 150.433594 215.039062 143.570312 213.832031 137.222656 211.277344 C 140.722656 212.460938 144.347656 213.238281 148.066406 213.457031 C 156.167969 213.9375 163.863281 211.226562 170.28125 206.382812 C 177.945312 200.601562 182.734375 192.4375 186.945312 183.980469 C 191.238281 175.355469 195.601562 166.058594 203.863281 160.496094 C 205.566406 159.347656 207.367188 158.453125 209.246094 157.78125 Z M 176.65625 200.074219 C 170.070312 207.832031 161.054688 213.15625 150.691406 213.1875 C 145.5 213.199219 140.421875 212.050781 135.613281 210.167969 C 137.816406 210.882812 140.066406 211.453125 142.363281 211.839844 C 147.480469 212.703125 152.78125 212.617188 157.765625 211.070312 C 160.785156 210.136719 163.625 208.683594 166.261719 206.941406 C 174.019531 201.816406 179.242188 194.046875 183.53125 185.972656 C 188.050781 177.445312 192.109375 168.085938 199.929688 162 C 202.667969 159.867188 205.683594 158.546875 208.839844 157.84375 C 191.0625 164.9375 188.050781 186.675781 176.664062 200.082031 Z M 205.714844 158.621094 C 198 161.730469 192.699219 168.5 188.683594 175.53125 C 183.707031 184.242188 179.90625 193.648438 172.949219 201.078125 C 169.4375 204.828125 165.292969 208.0625 160.488281 209.980469 C 155.644531 211.914062 150.382812 212.429688 145.21875 211.851562 C 141.644531 211.453125 138.160156 210.597656 134.792969 209.402344 C 136.222656 209.816406 137.667969 210.171875 139.132812 210.46875 C 144.5625 211.546875 150.238281 211.734375 155.605469 210.230469 C 158.753906 209.347656 161.722656 207.863281 164.441406 206.050781 C 172.328125 200.796875 177.484375 192.664062 181.898438 184.46875 C 186.71875 175.523438 191.550781 164.941406 200.96875 159.9375 C 203.375 158.660156 205.898438 157.957031 208.46875 157.707031 C 207.542969 157.957031 206.625 158.257812 205.714844 158.628906 Z M 137.785156 208.808594 C 143.539062 209.585938 149.582031 209.523438 155.074219 207.453125 C 158.40625 206.195312 161.515625 204.222656 164.191406 201.878906 C 172.398438 194.6875 176.65625 184.414062 182.148438 175.242188 C 185.003906 170.472656 188.277344 165.820312 192.597656 162.265625 C 196.742188 158.859375 201.625 157.09375 206.824219 157.417969 C 204.730469 157.605469 202.742188 158.113281 200.851562 158.882812 C 202.152344 158.390625 203.53125 158.019531 204.984375 157.820312 C 205.839844 157.699219 206.691406 157.636719 207.539062 157.621094 C 207.0625 157.699219 206.59375 157.792969 206.117188 157.90625 C 197.757812 159.910156 191.726562 166.820312 187.402344 173.851562 C 182.015625 182.609375 178.171875 192.292969 171.179688 199.988281 C 167.609375 203.910156 163.359375 207.296875 158.355469 209.175781 C 153.164062 211.125 147.527344 211.351562 142.082031 210.5625 C 139.878906 210.242188 137.710938 209.761719 135.574219 209.160156 C 142.644531 210.761719 149.851562 210.773438 156.496094 208.3125 C 151.40625 210.117188 145.871094 210.265625 140.546875 209.546875 C 137.910156 209.191406 135.3125 208.632812 132.769531 207.898438 C 134.410156 208.269531 136.078125 208.574219 137.765625 208.808594 Z M 84.238281 173.875 C 86.75 174.058594 89.148438 174.820312 91.390625 175.929688 C 95.960938 178.179688 99.863281 181.585938 103.460938 185.140625 C 108.484375 190.101562 113.273438 195.292969 118.558594 199.941406 C 115.871094 197.78125 113.296875 195.476562 110.800781 193.089844 C 106.9375 189.398438 103.222656 185.515625 99.097656 182.121094 C 93.570312 177.566406 85.605469 172.816406 78.277344 174.828125 C 79.917969 173.769531 82.421875 173.746094 84.238281 173.875 Z M 77.992188 175.023438 C 80.53125 174.453125 83.417969 174.691406 85.578125 175.230469 C 90.207031 176.394531 94.359375 179.058594 98.039062 182.019531 C 102.132812 185.316406 105.804688 189.125 109.585938 192.765625 C 112.171875 195.25 114.824219 197.664062 117.601562 199.925781 C 109.257812 193.664062 102.480469 185.398438 93.679688 179.757812 C 88.960938 176.734375 83.238281 174.527344 77.765625 175.171875 L 77.859375 175.117188 L 77.984375 175.027344 Z M 117.042969 200.226562 C 115.929688 199.460938 114.839844 198.671875 113.769531 197.851562 C 105.277344 191.355469 98.121094 182.785156 88.339844 178.117188 C 84.960938 176.5 81.222656 175.386719 77.464844 175.40625 C 77.945312 175.347656 78.421875 175.316406 78.890625 175.296875 C 83.625 175.160156 88.242188 177.078125 92.214844 179.488281 C 101.113281 184.882812 107.855469 193.171875 116.058594 199.484375 C 116.386719 199.738281 116.710938 199.980469 117.035156 200.226562 Z M 77.777344 175.078125 L 77.640625 175.183594 C 77.464844 175.203125 77.296875 175.234375 77.121094 175.261719 C 77.332031 175.191406 77.558594 175.136719 77.777344 175.085938 Z M 87.199219 178.148438 C 96.773438 182.496094 103.84375 190.703125 111.9375 197.15625 C 113.3125 198.25 114.726562 199.304688 116.171875 200.304688 C 114.273438 199.097656 112.429688 197.792969 110.648438 196.417969 C 101.953125 189.65625 94.207031 180.9375 83.550781 177.222656 C 81.160156 176.386719 78.660156 175.847656 76.148438 175.742188 C 79.945312 175.5625 83.746094 176.589844 87.199219 178.15625 Z M 82.171875 177.253906 C 92.6875 180.585938 100.429688 188.96875 108.800781 195.695312 C 111.023438 197.488281 113.453125 199.214844 116.027344 200.820312 C 113.375 199.296875 110.8125 197.585938 108.375 195.714844 C 99.167969 188.617188 90.675781 179.546875 78.984375 176.703125 C 77.765625 176.40625 76.539062 176.195312 75.296875 176.070312 L 75.335938 176.042969 C 77.640625 176.113281 79.949219 176.542969 82.171875 177.253906 Z M 75.328125 176.042969 L 75.285156 176.070312 C 75.167969 176.054688 75.042969 176.042969 74.921875 176.039062 C 75.058594 176.039062 75.191406 176.042969 75.328125 176.050781 Z M 75.328125 176.042969 " fill-opacity="1" fill-rule="nonzero"/></g><path fill="#ffffff" d="M 188.066406 169.445312 C 181.503906 178.25 177.726562 188.792969 170.808594 197.355469 C 167.890625 200.96875 164.433594 204.296875 160.363281 206.570312 C 161.617188 205.894531 162.84375 205.125 164.035156 204.226562 C 172.398438 197.980469 177.175781 188.527344 182.105469 179.59375 C 185.347656 173.714844 189.273438 166.964844 194.707031 162.519531 C 192.214844 164.480469 189.988281 166.859375 188.066406 169.445312 Z M 188.066406 169.445312 " fill-opacity="1" fill-rule="nonzero"/><path fill="#ffffff" d="M 159.050781 207.253906 C 158.535156 207.5 158.015625 207.730469 157.496094 207.941406 C 157.566406 207.917969 157.632812 207.894531 157.703125 207.863281 C 158.160156 207.671875 158.605469 207.46875 159.050781 207.253906 Z M 159.050781 207.253906 " fill-opacity="1" fill-rule="nonzero"/><path fill="#ffffff" d="M 200.855469 158.890625 C 198.609375 159.75 196.566406 161.003906 194.707031 162.523438 C 196.605469 161.035156 198.660156 159.785156 200.855469 158.890625 Z M 200.855469 158.890625 " fill-opacity="1" fill-rule="nonzero"/></svg>